<svg xmlns="http://www.w3.org/2000/svg" width="824" height="824" viewBox="0 0 824 824">
    <g transform="translate(256,100)">
        <circle r="30" cx="30" cy="156" fill="#505052" />
        <line x1="30" x2="282" y1="156" y2="156" stroke="#505052" stroke-width="60" />
        <circle r="30" cx="282" cy="156" fill="#505052" />
        <circle r="30" cx="65" cy="65" fill="#505052" />
        <line x1="65" x2="247" y1="65" y2="247" stroke="#505052" stroke-width="60" />
        <circle r="30" cx="247" cy="247" fill="#505052" />
        <circle r="30" cx="156" cy="30" fill="#505052" />
        <line x1="156" x2="156" y1="30" y2="282" stroke="#505052" stroke-width="60" />
        <circle r="30" cx="156" cy="282" fill="#505052" />
        <circle r="30" cx="247" cy="65" fill="#505052" />
        <line x1="247" x2="65" y1="65" y2="247" stroke="#505052" stroke-width="60" />
        <circle r="30" cx="65" cy="247" fill="#505052" />
    </g>
    <g>
        <circle r="30" cx="412" cy="472" fill="#505052" />
        <line x1="412" x2="286" y1="472" y2="535" stroke="#505052" stroke-width="60" />
        <circle r="30" cx="286" cy="535" fill="#505052" />
        <line x1="286" x2="412" y1="535" y2="598" stroke="#505052" stroke-width="60" />
        <circle r="30" cx="412" cy="598" fill="#505052" />
        <line x1="412" x2="538" y1="598" y2="535" stroke="#505052" stroke-width="60" />
        <circle r="30" cx="538" cy="535" fill="#505052" />
        <line x1="538" x2="412" y1="535" y2="472" stroke="#505052" stroke-width="60" />
        <circle r="30" cx="286" cy="635" fill="#505052" />
        <line x1="286" x2="412" y1="635" y2="698" stroke="#505052" stroke-width="60" />
        <circle r="30" cx="412" cy="698" fill="#505052" />
        <line x1="412" x2="538" y1="698" y2="635" stroke="#505052" stroke-width="60" />
        <circle r="30" cx="538" cy="635" fill="#505052" />
    </g>
    <!-- <g>
        <line x1="412" x2="412" y1="0" y2="824" stroke="black" stroke-width="5" />
        <line x1="0" x2="824" y1="412" y2="412" stroke="black" stroke-width="5" />
        <rect x="50" y="50" width="724" height="724" fill="none" stroke="#C00000" stroke-width="100" stroke-opacity="0.5" />
    </g> -->
</svg>
