<svg xmlns="http://www.w3.org/2000/svg" width="824" height="824" viewBox="0 0 824 824">
    <g>
        <g>
            <circle r="30" cx="310" cy="424" fill="#505052" />
            <path d="M310 424 a90 90 0 1 0 -90 90" fill="none" stroke="#505052" stroke-width="60" />
            <path d="M220 514 a90 90 0 1 1 -90 90" fill="none" stroke="#505052" stroke-width="60" />
            <circle r="30" cx="130" cy="604" fill="#505052" />
        </g>
        <g>
            <circle r="30" cx="382" cy="524" fill="#505052" />
            <line x1="382" x2="502" y1="524" y2="524" stroke="#505052" stroke-width="60" />
            <circle r="30" cx="502" cy="524" fill="#505052" />
            <circle r="30" cx="442" cy="454" fill="#505052" />
            <line x1="442" x2="442" y1="454" y2="649" stroke="#505052" stroke-width="60" />
            <path d="M442 634 a60 60 0 0 0 60 60" fill="none" stroke="#505052" stroke-width="60" />
            <circle r="30" cx="502" cy="694" fill="#505052" />
        </g>
        <g>
            <circle r="30" cx="574" cy="524" fill="#505052" />
            <line x1="574" x2="574" y1="524" y2="694" stroke="#505052" stroke-width="60" />
            <circle r="30" cx="574" cy="694" fill="#505052" />
            <path d="M574 614 a90 90 0 0 1 90 -90" fill="none" stroke="#505052" stroke-width="60" />
            <circle r="30" cx="664" cy="524" fill="#505052" />
        </g>
        <circle r="30" cx="694" cy="694" fill="#505052" />
    </g>
    <g transform="translate(412,100)">
        <circle r="30" cx="30" cy="156" fill="#505052" />
        <line x1="30" x2="282" y1="156" y2="156" stroke="#505052" stroke-width="60" />
        <circle r="30" cx="282" cy="156" fill="#505052" />
        <circle r="30" cx="65" cy="65" fill="#505052" />
        <line x1="65" x2="247" y1="65" y2="247" stroke="#505052" stroke-width="60" />
        <circle r="30" cx="247" cy="247" fill="#505052" />
        <circle r="30" cx="156" cy="30" fill="#505052" />
        <line x1="156" x2="156" y1="30" y2="282" stroke="#505052" stroke-width="60" />
        <circle r="30" cx="156" cy="282" fill="#505052" />
        <circle r="30" cx="247" cy="65" fill="#505052" />
        <line x1="247" x2="65" y1="65" y2="247" stroke="#505052" stroke-width="60" />
        <circle r="30" cx="65" cy="247" fill="#505052" />
    </g>
    <!-- <g>
        <line x1="412" x2="412" y1="0" y2="824" stroke="black" stroke-width="5" />
        <line x1="0" x2="824" y1="412" y2="412" stroke="black" stroke-width="5" />
        <rect x="50" y="50" width="724" height="724" fill="none" stroke="#C00000" stroke-width="100" stroke-opacity="0.5" />
    </g> -->
</svg>
